<svg xmlns="http://www.w3.org/2000/svg" xmlns:xlink="http://www.w3.org/1999/xlink" version="1.1" x="0px" y="0px" viewBox="0 0 51 63.75" enable-background="new 0 0 51 51" xml:space="preserve">
    <defs>
        <linearGradient id="myGradient" gradientTransform="rotate(90)">
          <stop offset="5%"  stop-color="gold" />
          <stop offset="95%" stop-color="red" />
        </linearGradient>
      </defs>
    <path d="M41.5,19.501h-3.859c0.005,0.18,0.014,0.355,0.014,0.539c-0.002,0.806-0.113,1.637-0.322,2.461h2.695L25.5,35.884  L10.974,22.501h2.949c-0.022-0.067-0.05-0.129-0.071-0.197c-0.281-0.91-0.441-1.846-0.488-2.803H9.5c-1.93,0-3.5,1.57-3.5,3.5  v21.666c0,1.93,1.57,3.5,3.5,3.5h32c1.93,0,3.5-1.57,3.5-3.5V23.001C45,21.071,43.43,19.501,41.5,19.501z M9,43.585V24.083  l10.585,9.75L9,43.585z M10.974,45.167l10.456-9.633l3.224,2.969c0.239,0.221,0.544,0.33,0.847,0.33c0.305,0,0.608-0.109,0.848-0.33  l3.223-2.969l10.457,9.633H10.974z M42,43.585l-10.584-9.752L42,24.083V43.585z" fill="black"/>
    <path d="M20.932,27.75c0,0-9.84-4.743-3.398-15.997c0,0,0.07,2.512,1.557,3.963c0,0-0.354-2.973,3.398-6.37  c1.709-1.548,2.478-3.013,3.172-6.513c0,0,5.464,4.389,6.455,12.459c0,0,1.133-2.689,1.133-4.389c0,0,2.422,3.822,2.406,9.131  c-0.01,3.176-2.053,7.078-6.088,7.716c0,0,1.266-2.042,1.416-4.813c0.139-2.545-0.733-5.729-2.902-7.998c0,0,0.968,6.088-3.35,8.566  c0,0,0.023-3.684-1.544-5.772c0,0-0.205,2.033-1.406,3.435C20.082,23.149,19.656,25.06,20.932,27.75z" fill="url('#myGradient')"/>
</svg>